<?xml version="1.0" encoding="UTF-8"?>
<svg width="20px" height="20px" viewBox="0 0 20 20" version="1.1" xmlns="http://www.w3.org/2000/svg" xmlns:xlink="http://www.w3.org/1999/xlink">
    <!-- Generator: Sketch 46.2 (44496) - http://www.bohemiancoding.com/sketch -->
    <title>icon-dashboard-home</title>
    <desc>Created with Sketch.</desc>
    <defs>
        <linearGradient x1="50%" y1="100%" x2="50%" y2="3.061617e-15%" id="linearGradient-1">
            <stop stop-color="#B9D5EC" offset="0%"></stop>
            <stop stop-color="#98B4CD" offset="100%"></stop>
        </linearGradient>
        <path d="M10,20 C4.4771525,20 0,15.5228475 0,10 C0,4.4771525 4.4771525,0 10,0 C15.5228475,0 20,4.4771525 20,10 C20,15.5228475 15.5228475,20 10,20 Z M9.28470161,14.7081186 C9.9224251,15.0763084 10.737879,14.8578082 11.1060688,14.2200847 C11.807592,13.0050109 14.1450259,6.72298177 13.9513683,6.62521478 C13.7577107,6.52744779 9.4981909,11.6716776 8.79666773,12.8867513 C8.4284779,13.5244748 8.64697811,14.3399287 9.28470161,14.7081186 Z" id="path-2"></path>
    </defs>
    <g id="Symbols" stroke="none" stroke-width="1" fill="none" fill-rule="evenodd">
        <g id="desktop/sidebar/home" transform="translate(-50.000000, -130.000000)">
            <g id="desktop/sidebar/analytics">
                <g id="icon-dashboard-home" transform="translate(50.000000, 130.000000)">
                    <mask id="mask-3" fill="white">
                        <use xlink:href="#path-2"></use>
                    </mask>
                    <use id="Combined-Shape" fill="url(#linearGradient-1)" xlink:href="#path-2"></use>
                    <path d="M7.35650745,13.686456 C3.11643437,14.8456691 0,18.7255601 0,23.3333333 C0,28.8561808 4.4771525,33.3333333 10,33.3333333 C15.5228475,33.3333333 20,28.8561808 20,23.3333333 C20,18.7255601 16.8835656,14.8456691 12.6434926,13.686456 C12.4707297,14.9922986 11.3530455,16 10,16 C8.64695449,16 7.52927026,14.9922986 7.35650745,13.686456 Z" id="Oval-Copy" fill="#CBE3F9" mask="url(#mask-3)"></path>
                </g>
            </g>
        </g>
    </g>
</svg>