<?xml version="1.0" encoding="UTF-8"?>
<svg width="20px" height="20px" viewBox="0 0 20 20" version="1.1" xmlns="http://www.w3.org/2000/svg" xmlns:xlink="http://www.w3.org/1999/xlink">
    <!-- Generator: Sketch 46.2 (44496) - http://www.bohemiancoding.com/sketch -->
    <title>icon-dashboard-applications</title>
    <desc>Created with Sketch.</desc>
    <defs>
        <linearGradient x1="50%" y1="100%" x2="50%" y2="3.061617e-15%" id="linearGradient-1">
            <stop stop-color="#B9D5EC" offset="0%"></stop>
            <stop stop-color="#98B4CD" offset="100%"></stop>
        </linearGradient>
    </defs>
    <g id="Symbols" stroke="none" stroke-width="1" fill="none" fill-rule="evenodd">
        <g id="desktop/sidebar/home" transform="translate(-50.000000, -169.000000)">
            <g id="desktop/sidebar/analytics">
                <g id="icon-dashboard-applications" transform="translate(50.000000, 169.000000)">
                    <path d="M15.7575413,10.2622203 L18.2575413,11.7250453 L18.2575413,11.7250453 C18.7173883,11.9941155 19,12.4869168 19,13.0197001 L19,15.9802999 L19,15.9802999 C19,16.5130832 18.7173883,17.0058845 18.2575413,17.2749547 L15.7575413,18.7377797 L15.7575413,18.7377797 C15.2896221,19.0115733 14.7103779,19.0115733 14.2424587,18.7377797 L11.7424587,17.2749547 L11.7424587,17.2749547 C11.2826117,17.0058845 11,16.5130832 11,15.9802999 L11,13.0197001 L11,13.0197001 C11,12.4869168 11.2826117,11.9941155 11.7424587,11.7250453 L14.2424587,10.2622203 L14.2424587,10.2622203 C14.7103779,9.98842674 15.2896221,9.98842674 15.7575413,10.2622203 Z" id="Polygon" fill="#B9D5EC"></path>
                    <path d="M10.7575413,1.26222031 L13.2575413,2.72504526 L13.2575413,2.72504526 C13.7173883,2.9941155 14,3.4869168 14,4.01970008 L14,6.98029992 L14,6.98029992 C14,7.5130832 13.7173883,8.0058845 13.2575413,8.27495474 L10.7575413,9.73777969 L10.7575413,9.73777969 C10.2896221,10.0115733 9.71037789,10.0115733 9.24245865,9.73777969 L6.74245865,8.27495474 L6.74245865,8.27495474 C6.28261169,8.0058845 6,7.5130832 6,6.98029992 L6,4.01970008 L6,4.01970008 C6,3.4869168 6.28261169,2.9941155 6.74245865,2.72504526 L9.24245865,1.26222031 L9.24245865,1.26222031 C9.71037789,0.988426736 10.2896221,0.988426736 10.7575413,1.26222031 Z" id="Polygon" fill="url(#linearGradient-1)"></path>
                    <path d="M5.75754135,10.2622203 L8.25754135,11.7250453 L8.25754135,11.7250453 C8.71738831,11.9941155 9,12.4869168 9,13.0197001 L9,15.9802999 L9,15.9802999 C9,16.5130832 8.71738831,17.0058845 8.25754135,17.2749547 L5.75754135,18.7377797 L5.75754135,18.7377797 C5.28962211,19.0115733 4.71037789,19.0115733 4.24245865,18.7377797 L1.74245865,17.2749547 L1.74245865,17.2749547 C1.28261169,17.0058845 1,16.5130832 1,15.9802999 L1,13.0197001 L1,13.0197001 C1,12.4869168 1.28261169,11.9941155 1.74245865,11.7250453 L4.24245865,10.2622203 L4.24245865,10.2622203 C4.71037789,9.98842674 5.28962211,9.98842674 5.75754135,10.2622203 Z" id="Polygon" fill="url(#linearGradient-1)"></path>
                </g>
            </g>
        </g>
    </g>
</svg>