<?xml version="1.0" encoding="UTF-8"?>
<svg width="40px" height="40px" viewBox="0 0 40 40" version="1.1" xmlns="http://www.w3.org/2000/svg" xmlns:xlink="http://www.w3.org/1999/xlink">
    <!-- Generator: Sketch 48.2 (47327) - http://www.bohemiancoding.com/sketch -->
    <title>avatar/organization</title>
    <desc>Created with Sketch.</desc>
    <defs>
        <circle id="path-1" cx="20" cy="20" r="20"></circle>
    </defs>
    <g id="Components" stroke="none" stroke-width="1" fill="none" fill-rule="evenodd">
        <g id="avatar/organization">
            <g id="avatar/initials/6">
                <mask id="mask-2" fill="white">
                    <use xlink:href="#path-1"></use>
                </mask>
                <use id="Mask" fill="#A2B0BD" xlink:href="#path-1"></use>
                <path d="M12,12 L28,12 L28,40 L12,40 L12,12 Z M15,16 L15,18 L17,18 L17,16 L15,16 Z M19,16 L19,18 L21,18 L21,16 L19,16 Z M23,16 L23,18 L25,18 L25,16 L23,16 Z M15,20 L15,22 L17,22 L17,20 L15,20 Z M19,20 L19,22 L21,22 L21,20 L19,20 Z M23,20 L23,22 L25,22 L25,20 L23,20 Z M15,24 L15,26 L17,26 L17,24 L15,24 Z M19,24 L19,26 L21,26 L21,24 L19,24 Z M23,24 L23,26 L25,26 L25,24 L23,24 Z" id="Combined-Shape" fill="#D3E0EB" mask="url(#mask-2)"></path>
                <path d="M30,20 L38,20 L38,40 L30,40 L30,20 Z M32,23 L32,25 L36,25 L36,23 L32,23 Z M32,26 L32,28 L36,28 L36,26 L32,26 Z" id="Combined-Shape" fill="#C3D1DD" mask="url(#mask-2)"></path>
                <rect id="Combined-Shape-Copy" fill="#C3D1DD" mask="url(#mask-2)" x="2" y="16" width="8" height="24"></rect>
                <circle id="Mask" stroke-opacity="0.101081295" stroke="#000000" mask="url(#mask-2)" cx="20" cy="20" r="19.5"></circle>
            </g>
        </g>
    </g>
</svg>