<?xml version="1.0" encoding="UTF-8"?>
<svg width="20px" height="20px" viewBox="0 0 20 20" version="1.1" xmlns="http://www.w3.org/2000/svg" xmlns:xlink="http://www.w3.org/1999/xlink">
    <!-- Generator: Sketch 46.2 (44496) - http://www.bohemiancoding.com/sketch -->
    <title>icon-lapis-alert-message</title>
    <desc>Created with Sketch.</desc>
    <defs></defs>
    <g id="Dashboard---Applications" stroke="none" stroke-width="1" fill="none" fill-rule="evenodd">
        <g id="9---dashboard---applications---create-new-application-4" transform="translate(-530.000000, -980.000000)" fill="#4E82EE">
            <g id="content" transform="translate(320.000000, 0.000000)">
                <g id="content-box" transform="translate(30.000000, 740.000000)">
                    <g id="textfield/small/unlabeled/empty/disabled" transform="translate(40.000000, 130.000000)">
                        <g id="card-1-copy" transform="translate(20.000000, 20.000000)">
                            <g id="Group" transform="translate(120.000000, 90.000000)">
                                <path d="M10,20 C4.4771525,20 0,15.5228475 0,10 C0,4.4771525 4.4771525,0 10,0 C15.5228475,0 20,4.4771525 20,10 C20,15.5228475 15.5228475,20 10,20 Z M8.77959331,2.72352396 C8.32410343,2.86328629 8.03046604,3.30498414 8.07787458,3.77906954 L8.07790663,3.77906634 L8.90995037,12.0995037 C8.96107055,12.6107055 9.39123611,13 9.90498756,13 L9.90498756,13 L10.0950124,13 C10.6087639,13 11.0389294,12.6107055 11.0900496,12.0995037 L11.9221785,3.77821542 C11.9695637,3.30436261 11.6762221,2.862833 11.2210364,2.72287624 L11.2210372,2.72287374 C10.7377979,2.57429125 10.3316126,2.5 10.0024814,2.5 C9.67287049,2.5 9.26524112,2.57450799 8.77959331,2.72352396 Z M10,17.5 C10.8284271,17.5 11.5,16.8284271 11.5,16 C11.5,15.1715729 10.8284271,14.5 10,14.5 C9.17157288,14.5 8.5,15.1715729 8.5,16 C8.5,16.8284271 9.17157288,17.5 10,17.5 Z" id="icon-lapis-alert-message"></path>
                            </g>
                        </g>
                    </g>
                </g>
            </g>
        </g>
    </g>
</svg>