<?xml version="1.0" encoding="UTF-8"?>
<svg width="50px" height="50px" viewBox="0 0 50 50" version="1.1" xmlns="http://www.w3.org/2000/svg" xmlns:xlink="http://www.w3.org/1999/xlink">
    <!-- Generator: Sketch 46.2 (44496) - http://www.bohemiancoding.com/sketch -->
    <title>icon-generic-service-small-border-1</title>
    <desc>Created with Sketch.</desc>
    <defs>
        <linearGradient x1="50%" y1="0%" x2="50%" y2="100%" id="linearGradient-1">
            <stop stop-color="#FF9B9B" offset="0%"></stop>
            <stop stop-color="#CB5581" offset="100%"></stop>
        </linearGradient>
        <path d="M44,18 L44,32 C44,39.1797017 35.4934102,45 25,45 C14.5065898,45 6,39.1797017 6,32 L6,18 C6,10.8202983 14.5065898,5 25,5 C35.4934102,5 44,10.8202983 44,18 Z" id="path-2"></path>
    </defs>
    <g id="Page-1" stroke="none" stroke-width="1" fill="none" fill-rule="evenodd">
        <g id="small-service-copy">
            <use fill="url(#linearGradient-1)" fill-rule="evenodd" xlink:href="#path-2"></use>
            <path stroke="#F6F8FC" stroke-width="4" d="M46,18 L46,32 C46,40.480997 36.4722264,47 25,47 C13.5277736,47 4,40.480997 4,32 L4,18 C4,9.51900297 13.5277736,3 25,3 C36.4722264,3 46,9.51900297 46,18 Z"></path>
        </g>
    </g>
</svg>