<?xml version="1.0" encoding="UTF-8"?>
<svg width="80px" height="80px" viewBox="0 0 80 80" version="1.1" xmlns="http://www.w3.org/2000/svg" xmlns:xlink="http://www.w3.org/1999/xlink">
    <!-- Generator: Sketch 46.2 (44496) - http://www.bohemiancoding.com/sketch -->
    <title>icon-generic-kintoblock</title>
    <desc>Created with Sketch.</desc>
    <defs>
        <path d="M44,2.30940108 L70.6410162,17.6905989 L70.6410162,17.6905989 C73.1162248,19.1196613 74.6410162,21.7606774 74.6410162,24.6188022 L74.6410162,55.3811978 L74.6410162,55.3811978 C74.6410162,58.2393226 73.1162248,60.8803387 70.6410162,62.3094011 L44,77.6905989 L44,77.6905989 C41.5247914,79.1196613 38.4752086,79.1196613 36,77.6905989 L9.35898385,62.3094011 L9.35898385,62.3094011 C6.88377523,60.8803387 5.35898385,58.2393226 5.35898385,55.3811978 L5.35898385,24.6188022 L5.35898385,24.6188022 C5.35898385,21.7606774 6.88377523,19.1196613 9.35898385,17.6905989 L36,2.30940108 L36,2.30940108 C38.4752086,0.880338717 41.5247914,0.880338717 44,2.30940108 Z" id="path-1"></path>
    </defs>
    <g id="Dashboard---Services" stroke="none" stroke-width="1" fill="none" fill-rule="evenodd">
        <g id="1---dashboard---services" transform="translate(-370.000000, -500.000000)">
            <g id="content">
                <g id="content-box" transform="translate(350.000000, 200.000000)">
                    <g id="card-1-copy-10" transform="translate(0.000000, 270.000000)">
                        <g id="Rectangle" transform="translate(20.000000, 30.000000)">
                            <mask id="mask-2" fill="white">
                                <use xlink:href="#path-1"></use>
                            </mask>
                            <use id="Mask" fill="#DBE8FB" xlink:href="#path-1"></use>
                            <path d="M80,17 L41.942017,39.8347898 L41.942017,39.8347898 C40.7371953,40.5576828 40,41.8597101 40,43.2647615 L40,80 L80,80 L80,17 Z" id="Mask" fill="#F5F9FF" mask="url(#mask-2)"></path>
                            <path d="M40,42.6912712 L40,80 L80,63 L41.4819187,41.8150553 L41.4819187,41.8150553 C40.9979981,41.5488989 40.3899405,41.7254318 40.1237841,42.2093525 C40.0425794,42.3569975 40,42.5227683 40,42.6912712 Z" id="Rectangle-Copy" fill="#EDF3FD" mask="url(#mask-2)"></path>
                        </g>
                    </g>
                </g>
            </g>
        </g>
    </g>
</svg>