<?xml version="1.0" encoding="UTF-8"?>
<svg width="80px" height="80px" viewBox="0 0 80 80" version="1.1" xmlns="http://www.w3.org/2000/svg" xmlns:xlink="http://www.w3.org/1999/xlink">
    <!-- Generator: Sketch 46.2 (44496) - http://www.bohemiancoding.com/sketch -->
    <title>icon-generic-application</title>
    <desc>Created with Sketch.</desc>
    <defs>
        <path d="M54.84375,1.22727915e-15 C65.25,1.22727915e-15 72,6.75 72,17.15625 L72,54.84375 C72,65.25 65.25,72 54.84375,72 L17.15625,72 C6.75,72 0,65.25 0,54.84375 L0,17.15625 C0,6.75 6.75,1.22727915e-15 17.15625,1.22727915e-15 L54.84375,1.22727915e-15 Z" id="path-1"></path>
    </defs>
    <g id="Dashboard---Services" stroke="none" stroke-width="1" fill="none" fill-rule="evenodd">
        <g id="1---dashboard---services" transform="translate(-370.000000, -230.000000)">
            <g id="content">
                <g id="content-box" transform="translate(350.000000, 200.000000)">
                    <g id="card-1-copy-9">
                        <g id="Rectangle-2" transform="translate(24.000000, 34.000000)">
                            <mask id="mask-2" fill="white">
                                <use xlink:href="#path-1"></use>
                            </mask>
                            <use id="Mask" fill="#DBE8FB" xlink:href="#path-1"></use>
                            <polygon id="Rectangle-2-Copy" fill="#EDF3FD" mask="url(#mask-2)" points="36 36 76 -4 76 76 -4 76"></polygon>
                            <polygon fill="#F5F9FF" mask="url(#mask-2)" points="36 36 76 -4 76 76"></polygon>
                        </g>
                    </g>
                </g>
            </g>
        </g>
    </g>
</svg>