<?xml version="1.0" encoding="UTF-8"?>
<svg width="80px" height="80px" viewBox="0 0 80 80" version="1.1" xmlns="http://www.w3.org/2000/svg" xmlns:xlink="http://www.w3.org/1999/xlink">
    <!-- Generator: Sketch 48.2 (47327) - http://www.bohemiancoding.com/sketch -->
    <title>icon-services-analytics-zipkin-large</title>
    <desc>Created with Sketch.</desc>
    <defs></defs>
    <g id="icon/services/analytics/zipkin/large" stroke="none" stroke-width="1" fill="none" fill-rule="evenodd">
        <g id="icon-services-analytics-zipkin-large">
            <circle id="Oval-4" fill="#FFFFFF" cx="40" cy="40" r="40"></circle>
            <path d="M19.3467699,49.4583072 L23.415995,49.4737367 L20.4701178,54.8576549 L23.2477146,54.8552704 L23.2323281,55.774168 L18.9336928,55.7806204 L21.8737481,50.3665445 L19.3315221,50.3665445 L19.3467699,49.4583072 Z M27.8216422,49.4505924 L28.7243126,49.4505924 L28.7234809,55.7824439 L27.8270482,55.7824439 L27.8216422,49.4505924 Z M33.6501598,49.4505924 C34.3078949,49.4609723 35.508868,49.4583072 35.508868,49.4583072 C35.8296265,49.4919716 36.1625833,49.6494929 36.4321923,49.8533027 C36.731188,50.1226179 36.9066765,50.3787478 36.9757075,50.6770985 C37.0301837,51.0890665 37.0285203,51.4324433 36.9891533,51.8267375 C36.8857454,52.2461397 36.7268909,52.5031112 36.4947083,52.7592411 C36.205693,53.0030275 35.9608963,53.1139797 35.6058995,53.1949145 C35.297062,53.2278775 34.8658262,53.2222668 34.5187306,53.2245111 L34.5403547,55.8172304 L33.6404566,55.8172304 L33.6501598,49.4505924 Z M34.5155424,52.3072967 L35.1799311,52.3065953 C35.6300188,52.2495061 35.4976401,52.2659175 35.7133273,52.1758653 C35.8968555,52.067999 35.9072517,52.0238144 36.0137092,51.8731663 C36.135553,51.6083397 36.155791,51.4118238 36.1359689,51.2615965 C36.1316718,51.0138827 36.093275,50.87656 35.9448168,50.6578817 C35.7989923,50.4859128 35.5795624,50.3968424 35.209595,50.3596713 L34.5270475,50.3620559 L34.5155424,52.3072967 Z M41.0083655,49.4583072 L41.8956495,49.4505924 L41.8916296,51.9118803 L44.4654602,49.4518549 L45.7526528,49.4627958 L42.5909497,52.5088622 L45.7544548,55.7787969 L44.4711435,55.7787969 L41.8840057,53.0805958 L41.8909366,55.7932445 L41.0082269,55.7932445 L41.0083655,49.4583072 Z M50.0110893,49.466022 L50.9136211,49.4505924 L50.9136211,55.774168 L50.0187132,55.7818828 L50.0110893,49.466022 Z M55.78599,49.2260229 L60.1912214,53.7597749 L60.2330836,49.3943448 L61.1159319,49.4007972 L61.1235558,56 L56.6680066,51.4745238 L56.6627392,55.7974526 L55.7627025,55.7818828 L55.78599,49.2260229 Z M39.9677717,20 C43.3640138,20 46.1172141,22.7858687 46.1172141,26.2227227 C46.1138873,28.8427943 44.3513789,31.1795239 41.9154717,32.0679834 L41.9163034,32.942416 L41.1205062,33.6694266 L41.1304866,39.5348859 L63.6485934,39.5348859 L66.6316198,39.3803102 C67.3985847,39.3239224 68.0631121,39.1772017 68.5441112,39.0401596 L69.5847051,38.7303069 C69.7922139,38.9161624 69.8881365,39.0857468 69.9516229,39.2880137 C69.9922375,39.4954705 69.9905741,39.8054635 70,40.0249833 C69.9972277,40.2568468 70.0072081,40.5645955 69.926256,40.8364355 C69.8683144,41.0441728 69.766154,41.2082867 69.5586452,41.394002 L68.5180513,41.0841493 C67.9269907,40.9194743 67.2759092,40.7996852 66.6063916,40.7432973 L63.6578807,40.6462317 L41.1304866,40.5258814 L41.0697726,42.1823098 L40.8403623,44.6898863 L40.7021617,46.2228785 L39.044586,46.2235799 L38.9025041,44.6487877 L38.6724008,42.1908662 L38.6162611,40.5258814 L23.7026538,40.4815567 L17.7359079,40.4854842 C17.6182225,40.5025969 17.5017847,40.5201304 17.3913074,40.5407499 C17.1966898,40.612427 17.0573803,40.7285691 17.0573803,40.7285691 C16.7464635,41.0465574 17.2669684,42.3610116 17.2669684,42.3610116 L17.6591144,43.2075308 C17.8452763,43.6293176 17.9134756,43.6476928 18.0221509,43.8505207 C17.5807961,43.8098429 17.3326726,43.7582242 17.0282708,43.6765881 C16.1031445,43.412042 15.6452943,43.2313765 14.5801654,42.7477314 C13.5351358,42.2452903 13.1016821,42.039657 12.3998669,41.5882736 C11.4255318,41.0168205 10.8896405,40.6156532 10.1996077,40.1655322 C10.1301609,40.1283611 10.0634863,40.0858598 10,40.0312954 C10.865244,39.4897195 11.3950361,39.0617609 12.5157503,38.4043234 C13.2175655,37.95294 13.6510192,37.7473067 14.6960487,37.2448656 C15.7611777,36.7612205 16.2190279,36.5805549 17.1441542,36.3160089 C17.448556,36.2343727 17.6966794,36.1819124 18.1380343,36.1413749 C18.029359,36.3440626 17.9611597,36.3634196 17.7749977,36.7850661 L17.3828518,37.6315853 C17.3828518,37.6315853 16.8623469,38.9460396 17.1732637,39.2640278 C17.1732637,39.2640278 17.4578433,39.5062712 17.7865029,39.5071128 L38.5303189,39.520298 L38.6216671,33.6531555 L37.8265631,32.8478751 L37.8265631,32.0518525 C35.4186564,31.1465609 33.8199927,28.8221749 33.8183293,26.222863 C33.8183293,22.786009 36.5713909,20.0001403 39.9677717,20 Z M39.9532169,21.1144317 C37.1650853,21.1144317 34.9502713,23.4325056 34.9502713,26.2538622 C34.9502713,29.0752189 37.2104129,31.3622935 39.9984059,31.3622935 C42.825766,31.2751869 44.9884602,28.8482648 45.022144,26.2514777 C45.0516693,23.9681903 43.4121137,21.1725027 39.9532169,21.1144317 Z" id="Combined-Shape" stroke="#231F20" stroke-width="0.5" fill="#231F20"></path>
        </g>
    </g>
</svg>