<?xml version="1.0" encoding="UTF-8"?>
<svg width="80px" height="80px" viewBox="0 0 80 80" version="1.1" xmlns="http://www.w3.org/2000/svg" xmlns:xlink="http://www.w3.org/1999/xlink">
    <!-- Generator: Sketch 46.2 (44496) - http://www.bohemiancoding.com/sketch -->
    <title>icon-hint-large</title>
    <desc>Created with Sketch.</desc>
    <defs></defs>
    <g id="Page-1" stroke="none" stroke-width="1" fill="none" fill-rule="evenodd">
        <path d="M40,80 C17.90861,80 0,62.09139 0,40 C0,17.90861 17.90861,0 40,0 C62.09139,0 80,17.90861 80,40 C80,62.09139 62.09139,80 40,80 Z M40,66 C43.3137085,66 46,63.3137085 46,60 C46,56.6862915 43.3137085,54 40,54 C36.6862915,54 34,56.6862915 34,60 C34,63.3137085 36.6862915,66 40,66 Z M36,46 L36,46 C36,48.209139 37.790861,50 40,50 L40,50 C42.209139,50 44,48.209139 44,46 C44,45.9361165 44,45.8722331 44,45.8083496 C44,43.3958441 44,42.3935547 44.3007813,41.7478027 C44.6781026,40.9377257 45.9525264,39.9155273 47.8640137,39.036377 C49.775501,38.1572266 56.3325195,34.3225508 56.3325195,27.4008789 C56.3325195,19.7184909 51.4189688,14 40.504,14 C29.5890312,14 26.7538882,22.1753736 26.1992188,23.4980469 L31.857666,26.2963867 C34.1131465,22.4664714 36.9952578,20.4856771 40.504,20.3540039 C45.7671133,20.1564941 49.3286133,23.1768789 49.3286133,27.4008789 C49.3286133,31.6248789 42.1875,34.1115723 40.504,35.104 C38.370656,36.3413395 37.1533037,37.7707203 36.44,39.4128418 C36,40.4257812 36,41.7415196 36,43.9526367 C36,44.6350911 36,45.3175456 36,46 Z" id="icon-hint-large" fill="#83A7F3"></path>
    </g>
</svg>