<?xml version="1.0" encoding="UTF-8"?>
<svg width="80px" height="80px" viewBox="0 0 80 80" version="1.1" xmlns="http://www.w3.org/2000/svg" xmlns:xlink="http://www.w3.org/1999/xlink">
    <!-- Generator: Sketch 47.1 (45422) - http://www.bohemiancoding.com/sketch -->
    <title>icon-company-info</title>
    <desc>Created with Sketch.</desc>
    <defs></defs>
    <g id="Website---About-Us" stroke="none" stroke-width="1" fill="none" fill-rule="evenodd">
        <g id="1---about-us" transform="translate(-1000.000000, -2950.000000)" fill="#FFFFFF">
            <g id="resources" transform="translate(250.000000, 2840.000000)">
                <g id="cards" transform="translate(0.000000, 70.000000)">
                    <path d="M790,120 C767.90861,120 750,102.09139 750,80 C750,57.90861 767.90861,40 790,40 C812.09139,40 830,57.90861 830,80 C830,102.09139 812.09139,120 790,120 Z M785,74.3098351 L785,105 L795,105 L795,71 L786.048262,73.0404134 C785.484891,73.1660808 785,73.7233875 785,74.3098351 Z M783.410988,63.1107762 L788.131927,66.7502123 C788.575776,67.0071137 789.100325,67.0927474 789.544174,66.878663 L793.700215,65.1231703 C793.942314,65.0375365 794.103714,64.823452 794.184414,64.5665507 L795.95981,58.315284 C796.080859,57.929932 795.91946,57.5445799 795.59666,57.3304954 L790.714321,54.2048621 C790.351172,54.0335946 789.947673,53.9479608 789.544174,54.0335946 L785.468833,55.1896507 C785.186384,55.2752845 784.984634,55.489369 784.903934,55.7462703 L783.007489,62.0403539 C782.967139,62.4685228 783.088188,62.8966918 783.410988,63.1107762 Z" id="icon-company-info"></path>
                </g>
            </g>
        </g>
    </g>
</svg>