<?xml version="1.0" encoding="UTF-8"?>
<svg width="40px" height="40px" viewBox="0 0 40 40" version="1.1" xmlns="http://www.w3.org/2000/svg" xmlns:xlink="http://www.w3.org/1999/xlink">
    <!-- Generator: Sketch 46.2 (44496) - http://www.bohemiancoding.com/sketch -->
    <title>icon-blue-edit-double</title>
    <desc>Created with Sketch.</desc>
    <defs></defs>
    <g id="Page-1" stroke="none" stroke-width="1" fill="none" fill-rule="evenodd">
        <g id="icon-blue-edit-double" transform="translate(-2.000000, 0.000000)">
            <circle id="Oval-10" fill="#53D9EB" cx="22" cy="20" r="20"></circle>
            <g id="icon-gray-edit-double">
                <g id="Rectangle-10" fill="#1488A2">
                    <rect x="0" y="30" width="16" height="2" rx="1"></rect>
                </g>
                <path d="M21,10 L23,10 L23,10 C23.5522847,10 24,10.4477153 24,11 L24,27.527864 L24,27.527864 C24,27.8383542 23.9277098,28.1445804 23.7888544,28.4222912 L22,32 L20.2111456,28.4222912 L20.2111456,28.4222912 C20.0722902,28.1445804 20,27.8383542 20,27.527864 L20,11 L20,11 C20,10.4477153 20.4477153,10 21,10 L21,10 Z M20,13 L20,14 L24,14 L24,13 L20,13 Z" id="pen" fill="#0C4B5D" transform="translate(22.000000, 21.000000) rotate(30.000000) translate(-22.000000, -21.000000) "></path>
            </g>
        </g>
    </g>
</svg>