<?xml version="1.0" encoding="UTF-8"?>
<svg width="80px" height="80px" viewBox="0 0 80 80" version="1.1" xmlns="http://www.w3.org/2000/svg" xmlns:xlink="http://www.w3.org/1999/xlink">
    <!-- Generator: Sketch 46.2 (44496) - http://www.bohemiancoding.com/sketch -->
    <title>icon-generic-services-dark</title>
    <desc>Created with Sketch.</desc>
    <defs></defs>
    <g id="Dashboard---Applications" stroke="none" stroke-width="1" fill="none" fill-rule="evenodd">
        <g id="5---dashboard---applications---create-new-application" transform="translate(-890.000000, -900.000000)">
            <g id="content" transform="translate(320.000000, 0.000000)">
                <g id="content-box" transform="translate(30.000000, 740.000000)">
                    <g id="textfield/small/unlabeled/empty/disabled" transform="translate(40.000000, 130.000000)">
                        <g id="Group" transform="translate(500.000000, 30.000000)">
                            <path d="M78,54 L78,26 L2,26 L2,54 C2,68.3594035 19.0131795,80 40,80 C60.9868205,80 78,68.3594035 78,54 Z" id="Combined-Shape-Copy-2" fill="#B9D5EC"></path>
                            <ellipse id="Path" fill="#CBE3F9" cx="40" cy="26" rx="38" ry="26"></ellipse>
                            <path d="M7.97370472,40 C14.7264169,32.7833745 26.5467807,28 40,28 C53.4532193,28 65.2735831,32.7833745 72.0262953,40 C65.2735831,47.2166255 53.4532193,52 40,52 C26.5467807,52 14.7264169,47.2166255 7.97370472,40 Z" id="Combined-Shape" fill="#DBE8FB"></path>
                        </g>
                    </g>
                </g>
            </g>
        </g>
    </g>
</svg>