<?xml version="1.0" encoding="UTF-8"?>
<svg width="20px" height="20px" viewBox="0 0 20 20" version="1.1" xmlns="http://www.w3.org/2000/svg" xmlns:xlink="http://www.w3.org/1999/xlink">
    <!-- Generator: Sketch 46.2 (44496) - http://www.bohemiancoding.com/sketch -->
    <title>icon-green-combined</title>
    <desc>Created with Sketch.</desc>
    <defs></defs>
    <g id="Page-1" stroke="none" stroke-width="1" fill="none" fill-rule="evenodd">
        <path d="M12,9 L12,10.5 C12,11.3284271 11.3284271,12 10.5,12 L10.5,12 L9,12 L9,14 C9,14.5522847 9.44771525,15 10,15 L14,15 C14.5522847,15 15,14.5522847 15,14 L15,10 C15,9.44771525 14.5522847,9 14,9 L12,9 Z M10,20 C4.4771525,20 0,15.5228475 0,10 C0,4.4771525 4.4771525,0 10,0 C15.5228475,0 20,4.4771525 20,10 C20,15.5228475 15.5228475,20 10,20 Z M6,5 C5.44771525,5 5,5.44771525 5,6 L5,10 C5,10.5522847 5.44771525,11 6,11 L10,11 C10.5522847,11 11,10.5522847 11,10 L11,6 C11,5.44771525 10.5522847,5 10,5 L6,5 Z" id="icon-green-combined" fill="#7ACB53"></path>
    </g>
</svg>