<?xml version="1.0" encoding="UTF-8"?>
<svg width="305px" height="27px" viewBox="0 0 305 27" version="1.1" xmlns="http://www.w3.org/2000/svg" xmlns:xlink="http://www.w3.org/1999/xlink">
    <!-- Generator: Sketch 48.2 (47327) - http://www.bohemiancoding.com/sketch -->
    <title>kintohub-title-text.svg</title>
    <desc>Created with Sketch.</desc>
    <defs></defs>
    <g id="Page-1" stroke="none" stroke-width="1" fill="none" fill-rule="evenodd">
        <g id="kintohub-title-text.svg">
            <path d="M163.564,1.12 L163.564,21 L160.4,21 L160.4,12.236 L150.376,12.236 L150.376,21 L147.24,21 L147.24,1.12 L150.376,1.12 L150.376,9.436 L160.4,9.436 L160.4,1.12 L163.564,1.12 Z M174.288,21.28 C173.149328,21.28 172.113338,21.0793353 171.18,20.678 C170.246662,20.2766647 169.44867,19.7306701 168.786,19.04 C168.12333,18.3493299 167.610002,17.5466712 167.246,16.632 C166.881998,15.7173288 166.7,14.7466718 166.7,13.72 C166.7,12.6933282 166.881998,11.7180046 167.246,10.794 C167.610002,9.86999538 168.12333,9.0580035 168.786,8.358 C169.44867,7.6579965 170.246662,7.10733534 171.18,6.706 C172.113338,6.30466466 173.158661,6.104 174.316,6.104 C175.454672,6.104 176.485995,6.30933128 177.41,6.72 C178.334005,7.13066872 179.122663,7.67666326 179.776,8.358 C180.429337,9.03933674 180.928665,9.83266214 181.274,10.738 C181.619335,11.6433379 181.792,12.5906617 181.792,13.58 C181.792,13.8040011 181.782667,14.013999 181.764,14.21 C181.745333,14.406001 181.726667,14.5693327 181.708,14.7 L169.976,14.7 C170.032,15.3533366 170.185999,15.9413307 170.438,16.464 C170.690001,16.9866693 171.016665,17.4393314 171.418,17.822 C171.819335,18.2046686 172.276664,18.4986656 172.79,18.704 C173.303336,18.9093344 173.839997,19.012 174.4,19.012 C174.810669,19.012 175.216665,18.9606672 175.618,18.858 C176.019335,18.7553328 176.387998,18.606001 176.724,18.41 C177.060002,18.213999 177.358665,17.9760014 177.62,17.696 C177.881335,17.4159986 178.086666,17.1080017 178.236,16.772 L180.868,17.528 C180.363997,18.6293388 179.528672,19.5299965 178.362,20.23 C177.195327,20.9300035 175.837341,21.28 174.288,21.28 Z M178.74,12.572 C178.684,11.9559969 178.530001,11.3866693 178.278,10.864 C178.025999,10.3413307 177.704002,9.89800182 177.312,9.534 C176.919998,9.16999818 176.462669,8.88533436 175.94,8.68 C175.417331,8.47466564 174.86667,8.372 174.288,8.372 C173.70933,8.372 173.163336,8.47466564 172.65,8.68 C172.136664,8.88533436 171.684002,9.16999818 171.292,9.534 C170.899998,9.89800182 170.582668,10.3413307 170.34,10.864 C170.097332,11.3866693 169.948,11.9559969 169.892,12.572 L178.74,12.572 Z M184.34,0.56 L187.42,0.56 L187.42,16.772 C187.42,17.313336 187.559999,17.7379985 187.84,18.046 C188.120001,18.3540015 188.511997,18.508 189.016,18.508 C189.221334,18.508 189.459332,18.470667 189.73,18.396 C190.000668,18.321333 190.257332,18.2373338 190.5,18.144 L190.948,20.552 C190.499998,20.7573344 189.968003,20.9206661 189.352,21.042 C188.735997,21.1633339 188.185336,21.224 187.7,21.224 C186.635995,21.224 185.810003,20.9346696 185.222,20.356 C184.633997,19.7773304 184.34,18.9560053 184.34,17.892 L184.34,0.56 Z M201.056,21.28 C199.879994,21.28 198.844004,21.0000028 197.948,20.44 C197.051996,19.8799972 196.342669,19.1520045 195.82,18.256 L195.82,26.964 L192.74,26.964 L192.74,6.356 L195.456,6.356 L195.456,8.988 C196.016003,8.11066228 196.739329,7.41066928 197.626,6.888 C198.512671,6.36533072 199.515994,6.104 200.636,6.104 C201.644005,6.104 202.567996,6.30933128 203.408,6.72 C204.248004,7.13066872 204.975997,7.68132988 205.592,8.372 C206.208003,9.06267012 206.688665,9.86532876 207.034,10.78 C207.379335,11.6946712 207.552,12.655995 207.552,13.664 C207.552,14.7280053 207.393335,15.7219954 207.076,16.646 C206.758665,17.5700046 206.31067,18.3726633 205.732,19.054 C205.15333,19.7353367 204.467337,20.2766647 203.674,20.678 C202.880663,21.0793353 202.008005,21.28 201.056,21.28 Z M200.048,18.648 C200.701337,18.648 201.293997,18.5080014 201.826,18.228 C202.358003,17.9479986 202.815331,17.574669 203.198,17.108 C203.580669,16.641331 203.874666,16.1093363 204.08,15.512 C204.285334,14.9146637 204.388,14.2986698 204.388,13.664 C204.388,12.9919966 204.271334,12.3573363 204.038,11.76 C203.804666,11.1626637 203.487335,10.6400022 203.086,10.192 C202.684665,9.74399776 202.204003,9.38933464 201.644,9.128 C201.083997,8.86666536 200.477337,8.736 199.824,8.736 C199.431998,8.736 199.021335,8.81066592 198.592,8.96 C198.162665,9.10933408 197.761335,9.31466536 197.388,9.576 C197.014665,9.83733464 196.688001,10.1406649 196.408,10.486 C196.127999,10.8313351 195.932001,11.2093313 195.82,11.62 L195.82,15.456 C196.006668,15.9040022 196.249332,16.323998 196.548,16.716 C196.846668,17.108002 197.177998,17.4439986 197.542,17.724 C197.906002,18.0040014 198.302665,18.2279992 198.732,18.396 C199.161335,18.5640008 199.599998,18.648 200.048,18.648 Z M216.372,10.92 C216.372,9.72532736 216.586665,8.53533926 217.016,7.35 C217.445335,6.16466074 218.075329,5.10067138 218.906,4.158 C219.736671,3.21532862 220.749327,2.45466956 221.944,1.876 C223.138673,1.29733044 224.491992,1.008 226.004,1.008 C227.814676,1.008 229.363994,1.40932932 230.652,2.212 C231.940006,3.01467068 232.910663,4.05999356 233.564,5.348 L231.1,7 C230.819999,6.40266368 230.484002,5.89866872 230.092,5.488 C229.699998,5.07733128 229.270669,4.75066788 228.804,4.508 C228.337331,4.26533212 227.852003,4.09266718 227.348,3.99 C226.843997,3.88733282 226.358669,3.836 225.892,3.836 C224.846661,3.836 223.932004,4.0459979 223.148,4.466 C222.363996,4.8860021 221.706003,5.44132988 221.174,6.132 C220.641997,6.82267012 220.240668,7.59732904 219.97,8.456 C219.699332,9.31467096 219.564,10.173329 219.564,11.032 C219.564,12.0026715 219.722665,12.9266623 220.04,13.804 C220.357335,14.6813377 220.800664,15.4559966 221.37,16.128 C221.939336,16.8000034 222.615996,17.3366647 223.4,17.738 C224.184004,18.1393353 225.042662,18.34 225.976,18.34 C226.461336,18.34 226.960664,18.2793339 227.474,18.158 C227.987336,18.0366661 228.481998,17.840668 228.958,17.57 C229.434002,17.299332 229.872665,16.9586687 230.274,16.548 C230.675335,16.1373313 231.006665,15.6426696 231.268,15.064 L233.872,16.548 C233.554665,17.2946704 233.10667,17.9526638 232.528,18.522 C231.94933,19.0913362 231.296004,19.571998 230.568,19.964 C229.839996,20.356002 229.070004,20.6546656 228.258,20.86 C227.445996,21.0653344 226.648004,21.168 225.864,21.168 C224.463993,21.168 223.185339,20.8693363 222.028,20.272 C220.870661,19.6746637 219.872004,18.8953381 219.032,17.934 C218.191996,16.9726619 217.538669,15.8806728 217.072,14.658 C216.605331,13.4353272 216.372,12.1893397 216.372,10.92 Z M243.028,21.28 C241.889328,21.28 240.853338,21.0793353 239.92,20.678 C238.986662,20.2766647 238.18867,19.7306701 237.526,19.04 C236.86333,18.3493299 236.350002,17.5466712 235.986,16.632 C235.621998,15.7173288 235.44,14.7466718 235.44,13.72 C235.44,12.6933282 235.621998,11.7180046 235.986,10.794 C236.350002,9.86999538 236.86333,9.0580035 237.526,8.358 C238.18867,7.6579965 238.986662,7.10733534 239.92,6.706 C240.853338,6.30466466 241.898661,6.104 243.056,6.104 C244.194672,6.104 245.225995,6.30933128 246.15,6.72 C247.074005,7.13066872 247.862663,7.67666326 248.516,8.358 C249.169337,9.03933674 249.668665,9.83266214 250.014,10.738 C250.359335,11.6433379 250.532,12.5906617 250.532,13.58 C250.532,13.8040011 250.522667,14.013999 250.504,14.21 C250.485333,14.406001 250.466667,14.5693327 250.448,14.7 L238.716,14.7 C238.772,15.3533366 238.925999,15.9413307 239.178,16.464 C239.430001,16.9866693 239.756665,17.4393314 240.158,17.822 C240.559335,18.2046686 241.016664,18.4986656 241.53,18.704 C242.043336,18.9093344 242.579997,19.012 243.14,19.012 C243.550669,19.012 243.956665,18.9606672 244.358,18.858 C244.759335,18.7553328 245.127998,18.606001 245.464,18.41 C245.800002,18.213999 246.098665,17.9760014 246.36,17.696 C246.621335,17.4159986 246.826666,17.1080017 246.976,16.772 L249.608,17.528 C249.103997,18.6293388 248.268672,19.5299965 247.102,20.23 C245.935327,20.9300035 244.577341,21.28 243.028,21.28 Z M247.48,12.572 C247.424,11.9559969 247.270001,11.3866693 247.018,10.864 C246.765999,10.3413307 246.444002,9.89800182 246.052,9.534 C245.659998,9.16999818 245.202669,8.88533436 244.68,8.68 C244.157331,8.47466564 243.60667,8.372 243.028,8.372 C242.44933,8.372 241.903336,8.47466564 241.39,8.68 C240.876664,8.88533436 240.424002,9.16999818 240.032,9.534 C239.639998,9.89800182 239.322668,10.3413307 239.08,10.864 C238.837332,11.3866693 238.688,11.9559969 238.632,12.572 L247.48,12.572 Z M266.184,21 L263.104,21 L263.104,12.796 C263.104,11.4146598 262.884669,10.4113365 262.446,9.786 C262.007331,9.16066354 261.358671,8.848 260.5,8.848 C260.051998,8.848 259.604002,8.93199916 259.156,9.1 C258.707998,9.26800084 258.288002,9.50599846 257.896,9.814 C257.503998,10.1220015 257.154002,10.4859979 256.846,10.906 C256.537998,11.3260021 256.300001,11.7879975 256.132,12.292 L256.132,21 L253.052,21 L253.052,6.356 L255.852,6.356 L255.852,9.296 C256.412003,8.30666172 257.223995,7.52733618 258.288,6.958 C259.352005,6.38866382 260.527994,6.104 261.816,6.104 C262.693338,6.104 263.411997,6.26266508 263.972,6.58 C264.532003,6.89733492 264.975332,7.33133058 265.302,7.882 C265.628668,8.43266942 265.857333,9.06732974 265.988,9.786 C266.118667,10.5046703 266.184,11.2653293 266.184,12.068 L266.184,21 Z M277.916,20.244 C277.523998,20.4306676 276.98267,20.6406655 276.292,20.874 C275.60133,21.1073345 274.864004,21.224 274.08,21.224 C273.594664,21.224 273.137335,21.1586673 272.708,21.028 C272.278665,20.8973327 271.900668,20.7013346 271.574,20.44 C271.247332,20.1786654 270.990668,19.8380021 270.804,19.418 C270.617332,18.9979979 270.524,18.4893363 270.524,17.892 L270.524,8.736 L268.592,8.736 L268.592,6.356 L270.524,6.356 L270.524,1.54 L273.604,1.54 L273.604,6.356 L276.796,6.356 L276.796,8.736 L273.604,8.736 L273.604,16.912 C273.641334,17.4346693 273.804665,17.8126655 274.094,18.046 C274.383335,18.2793345 274.742665,18.396 275.172,18.396 C275.601335,18.396 276.011998,18.3213341 276.404,18.172 C276.796002,18.0226659 277.085332,17.9013338 277.272,17.808 L277.916,20.244 Z M286.68,21.28 C285.541328,21.28 284.505338,21.0793353 283.572,20.678 C282.638662,20.2766647 281.84067,19.7306701 281.178,19.04 C280.51533,18.3493299 280.002002,17.5466712 279.638,16.632 C279.273998,15.7173288 279.092,14.7466718 279.092,13.72 C279.092,12.6933282 279.273998,11.7180046 279.638,10.794 C280.002002,9.86999538 280.51533,9.0580035 281.178,8.358 C281.84067,7.6579965 282.638662,7.10733534 283.572,6.706 C284.505338,6.30466466 285.550661,6.104 286.708,6.104 C287.846672,6.104 288.877995,6.30933128 289.802,6.72 C290.726005,7.13066872 291.514663,7.67666326 292.168,8.358 C292.821337,9.03933674 293.320665,9.83266214 293.666,10.738 C294.011335,11.6433379 294.184,12.5906617 294.184,13.58 C294.184,13.8040011 294.174667,14.013999 294.156,14.21 C294.137333,14.406001 294.118667,14.5693327 294.1,14.7 L282.368,14.7 C282.424,15.3533366 282.577999,15.9413307 282.83,16.464 C283.082001,16.9866693 283.408665,17.4393314 283.81,17.822 C284.211335,18.2046686 284.668664,18.4986656 285.182,18.704 C285.695336,18.9093344 286.231997,19.012 286.792,19.012 C287.202669,19.012 287.608665,18.9606672 288.01,18.858 C288.411335,18.7553328 288.779998,18.606001 289.116,18.41 C289.452002,18.213999 289.750665,17.9760014 290.012,17.696 C290.273335,17.4159986 290.478666,17.1080017 290.628,16.772 L293.26,17.528 C292.755997,18.6293388 291.920673,19.5299965 290.754,20.23 C289.587328,20.9300035 288.229341,21.28 286.68,21.28 Z M291.132,12.572 C291.076,11.9559969 290.922001,11.3866693 290.67,10.864 C290.417999,10.3413307 290.096002,9.89800182 289.704,9.534 C289.311998,9.16999818 288.854669,8.88533436 288.332,8.68 C287.809331,8.47466564 287.25867,8.372 286.68,8.372 C286.10133,8.372 285.555336,8.47466564 285.042,8.68 C284.528664,8.88533436 284.076002,9.16999818 283.684,9.534 C283.291998,9.89800182 282.974668,10.3413307 282.732,10.864 C282.489332,11.3866693 282.34,11.9559969 282.284,12.572 L291.132,12.572 Z M304.936,9.016 C303.741327,9.05333352 302.682005,9.3286641 301.758,9.842 C300.833995,10.3553359 300.176002,11.0879952 299.784,12.04 L299.784,21 L296.704,21 L296.704,6.356 L299.56,6.356 L299.56,9.632 C300.064003,8.62399496 300.721996,7.8166697 301.534,7.21 C302.346004,6.6033303 303.218662,6.27200028 304.152,6.216 L304.614,6.216 C304.735334,6.216 304.842666,6.22533324 304.936,6.244 L304.936,9.016 Z" id="Help-Center" fill="#A2B0BD"></path>
            <path d="M9.14709473,10.1729736 L19.8497314,21.6121216 C20.0057419,21.7681909 19.9038147,22 19.6958008,22 L14.7159408,22 L6.65390015,13.2121582 C6.56152344,13.0814209 6.36775208,13.0878143 6.27598572,13.1858063 L4,15.4393064 L4,22 L0,22 L0,0 L4,0 L4,9.21008301 L13.5827637,0 L18.6335366,0 C18.8415505,0 18.9240769,0.175290499 18.7680664,0.331359863 L9.14709473,10.1729736 Z M22,9.10943604 C22,8.86666147 22.1782771,8.63658733 22.4036255,8.58456421 L26,7.73988439 L26,22 L22,22 L22,9.10943604 Z M21.2163763,4.28901734 C21.0777003,4.20231214 21.0256969,4.02890173 21.0430314,3.85549133 L21.8577526,1.30635838 C21.8924216,1.20231214 21.9790941,1.11560694 22.1004355,1.08092486 L23.8512195,0.612716763 C24.0245645,0.578034682 24.1979094,0.612716763 24.3539199,0.682080925 L26.4513937,1.94797688 C26.5900697,2.03468208 26.6594077,2.19075145 26.6074042,2.34682081 L25.8446864,4.87861272 C25.8100174,4.98265896 25.7406794,5.06936416 25.6366725,5.10404624 L23.8512195,5.8150289 C23.6605401,5.9017341 23.4351916,5.86705202 23.2445122,5.76300578 L21.2163763,4.28901734 Z M39.9722997,22 L40,13.583815 C40,11.2080925 39.0882404,9.33526012 36.5747387,9.38728324 C34.5466028,9.42196532 33,11.2427746 33,13.4971098 L33,22 L29.016899,22 L29.016899,8.83236994 L29.016899,7.37572254 C29.016899,7.13294798 29.1729094,6.92485549 29.4155923,6.87283237 L30.386324,6.6300578 L32.6744774,6.10982659 L32.7438153,8.19075145 C34.3385889,6.6300578 35.569338,5.83236994 37.5454704,5.83236994 C41.2377178,5.83236994 44,8.60693642 44,13.5317919 L44,22 L39.9722997,22 Z M52.002439,1.63583815 L52.002439,6 L56.1627178,6 L55.6884766,9.72268677 C55.6711421,9.87875613 55.538676,9.99963379 55.3826655,9.99963379 L52,9.99963379 L52,15.0404624 C52,16.5317919 52.3317944,18.4393064 53.9959059,18.4739884 C54.4292683,18.4913295 54.9319686,18.3699422 55.3826655,18.2138728 C55.6426829,18.1098266 55.9027003,18.265896 56.0240418,18.5260116 C56.1107143,18.7514451 56.3880662,19.3236994 56.5787456,19.6705202 C57.150784,20.6763006 57.4281359,21.0231214 57.4281359,21.0231214 C56.3013937,21.6820809 55.1226481,21.9768786 53.7358885,21.9768786 C49.9569686,21.9595376 48,18.9421965 48,15.0404624 L48,9.99963379 L45,9.99963379 L44.9993031,6 L48,6 L48,2.95375723 C48,2.71098266 48.2755226,2.50289017 48.5008711,2.45086705 L52.002439,1.63583815 Z M74.6690904,13.9479769 C74.6690904,18.4739884 71.5835503,22.132948 66.4872089,22.132948 C61.3908674,22.132948 58.3399963,18.4739884 58.3399963,13.9479769 C58.3399963,9.4566474 61.4602054,5.76300578 66.4525399,5.76300578 C71.4622089,5.78034682 74.6690904,9.47398844 74.6690904,13.9479769 Z M62.4136026,13.9479769 C62.4136026,16.3410405 63.6790207,18.734104 66.5045434,18.734104 C69.330066,18.734104 70.5954841,16.3410405 70.5954841,13.9479769 C70.5954841,11.5895954 69.1220521,9.12716763 66.5045434,9.12716763 C63.6963552,9.12716763 62.4136026,11.6069364 62.4136026,13.9479769 Z M92,22 L92,12.7514451 L82.1817944,14 C82.060453,14.017341 82,14.1213873 82,14.2427746 L82,22 L78,22 L78,0 L82,0 L82,10.150289 L91.8474121,8.93865967 C91.9514191,8.92131863 92,8.78034682 92,8.65895954 L92,0 L96,0 L96,22 L92,22 Z M103,7.46242775 L103,14.3121387 C103,16.6878613 103.45662,18.4566474 106.264808,18.5086705 C108.050261,18.5433526 110,16.6531792 110,14.3988439 L110,8.7283237 L110,7.08092486 C110,6.83815029 110.147735,6.6300578 110.373084,6.57803468 L114,6.10982659 L114,22 L110.529094,22 C110.338415,22 110.182404,21.6820809 110.182404,21.4913295 L110.113066,19.6878613 C108.674303,21.283237 107.339547,22.0462428 105.155401,22.0462428 C101.393815,22.0462428 99.0189895,19.2196532 99.0189895,14.3468208 L99.0189895,8.86705202 L99.0189895,8.39884393 C99.0189895,8.15606936 99.1923345,7.94797688 99.4176829,7.89595376 L103,7.46242775 Z M121,0 L121,8.05202312 C122.005401,6.68208092 124.39669,5.76300578 126.043467,5.78034682 C129.770383,5.8150289 133.895993,8.52023121 133.895993,13.9306358 C133.895993,19.0809249 130.41176,22.5144509 125.818118,22.132948 C123.997997,21.9768786 122.108537,20.8323699 121.103136,19.6184971 L121.016463,21.4566474 C120.999129,21.6473988 120.860453,22 120.669774,22 L117,22 L117,0.84161377 C117,0.598839203 117.170105,0.394470215 117.478027,0.361938477 L121,0 Z M121.380488,13.9132948 C121.380488,16.7398844 123.304617,18.699422 125.74878,18.699422 C128.452962,18.699422 129.943728,16.3063584 129.943728,13.8786127 C129.943728,11.3988439 128.227613,9.16184971 125.74878,9.16184971 C123.304617,9.16184971 121.380488,11.1907514 121.380488,13.9132948 Z" id="Combined-Shape" fill="#FFFFFF" fill-rule="nonzero"></path>
        </g>
    </g>
</svg>